<svg xmlns="http://www.w3.org/2000/svg" width="1100" height="220" viewBox="0 0 1100 220">
<style>
text { font-family: -apple-system, BlinkMacSystemFont, 'Segoe UI', Roboto, Helvetica, Arial, sans-serif; fill: #1b1f23; }
.title { font-size: 20px; font-weight: 700; }
.subtitle { font-size: 12px; fill: #5a6472; }
.axis { font-size: 11px; fill: #3a4451; }
.label { font-size: 12px; font-weight: 600; }
.value { font-size: 11px; fill: #203040; }
</style>
<rect x="0" y="0" width="100%" height="100%" fill="#ffffff"/>
<text class="title" x="28" y="40">Checkpoint Status Snapshot</text>
<text class="subtitle" x="28" y="62">Checkpoint outcomes from the final experiment summary</text>
<rect x="30" y="90" width="128" height="88" rx="10" fill="#dff3e5" stroke="#5ea776"/>
<text class="label" x="40" y="114">Clean Data And Ann</text>
<text class="axis" x="40" y="136">otation</text>
<text class="value" x="40" y="160">PASS</text>
<rect x="166" y="90" width="128" height="88" rx="10" fill="#dff3e5" stroke="#5ea776"/>
<text class="label" x="176" y="114">B1 Beats Random</text>
<text class="axis" x="176" y="136"></text>
<text class="value" x="176" y="160">PASS</text>
<rect x="302" y="90" width="128" height="88" rx="10" fill="#dff3e5" stroke="#5ea776"/>
<text class="label" x="312" y="114">B2 Beats B1</text>
<text class="axis" x="312" y="136"></text>
<text class="value" x="312" y="160">PASS</text>
<rect x="438" y="90" width="128" height="88" rx="10" fill="#dff3e5" stroke="#5ea776"/>
<text class="label" x="448" y="114">Weak Pretraining H</text>
<text class="axis" x="448" y="136">elps</text>
<text class="value" x="448" y="160">PASS</text>
<rect x="574" y="90" width="128" height="88" rx="10" fill="#dff3e5" stroke="#5ea776"/>
<text class="label" x="584" y="114">Hierarchical Vs Fl</text>
<text class="axis" x="584" y="136">at Under Shift</text>
<text class="value" x="584" y="160">PASS</text>
<rect x="710" y="90" width="128" height="88" rx="10" fill="#dff3e5" stroke="#5ea776"/>
<text class="label" x="720" y="114">Soft Labels Help A</text>
<text class="axis" x="720" y="136">mbiguity</text>
<text class="value" x="720" y="160">PASS</text>
<rect x="846" y="90" width="128" height="88" rx="10" fill="#dff3e5" stroke="#5ea776"/>
<text class="label" x="856" y="114">Evidence Plausibil</text>
<text class="axis" x="856" y="136">ity Addressed</text>
<text class="value" x="856" y="160">PASS</text>
<rect x="982" y="90" width="128" height="88" rx="10" fill="#dff3e5" stroke="#5ea776"/>
<text class="label" x="992" y="114">Calibration Improv</text>
<text class="axis" x="992" y="136">es Confidence</text>
<text class="value" x="992" y="160">PASS</text>
</svg>
